<mxfile host="app.diagrams.net" modified="2021-12-13T03:24:09.354Z" agent="5.0 (Windows NT 10.0; Win64; x64) AppleWebKit/537.36 (KHTML, like Gecko) Chrome/96.0.4664.93 Safari/537.36" etag="SRx2UK56ahkUHvCg9_tR" version="15.9.4" type="github">
  <diagram name="Page-1" id="13e1069c-82ec-6db2-03f1-153e76fe0fe0">
    <mxGraphModel dx="2062" dy="1122" grid="1" gridSize="10" guides="1" tooltips="1" connect="1" arrows="1" fold="1" page="1" pageScale="1" pageWidth="1700" pageHeight="1100" background="none" math="0" shadow="0">
      <root>
        <mxCell id="0" />
        <mxCell id="1" parent="0" />
        <mxCell id="7baba1c4bc27f4b0-2" value="GUI Plugin" style="shape=umlLifeline;perimeter=lifelinePerimeter;whiteSpace=wrap;html=1;container=1;collapsible=0;recursiveResize=0;outlineConnect=0;rounded=1;shadow=0;comic=0;labelBackgroundColor=none;strokeWidth=1;fontFamily=Verdana;fontSize=12;align=center;" parent="1" vertex="1">
          <mxGeometry x="332" y="80" width="100" height="1860" as="geometry" />
        </mxCell>
        <mxCell id="7baba1c4bc27f4b0-10" value="" style="html=1;points=[];perimeter=orthogonalPerimeter;rounded=0;shadow=0;comic=0;labelBackgroundColor=none;strokeWidth=1;fontFamily=Verdana;fontSize=12;align=center;" parent="7baba1c4bc27f4b0-2" vertex="1">
          <mxGeometry x="45" y="100" width="10" height="220" as="geometry" />
        </mxCell>
        <mxCell id="ZGyFGewA9WZNqlK4FPmr-8" value="" style="html=1;points=[];perimeter=orthogonalPerimeter;rounded=0;shadow=0;comic=0;labelBackgroundColor=none;strokeWidth=1;fontFamily=Verdana;fontSize=12;align=center;" vertex="1" parent="7baba1c4bc27f4b0-2">
          <mxGeometry x="53" y="268.11" width="10" height="40" as="geometry" />
        </mxCell>
        <mxCell id="ZGyFGewA9WZNqlK4FPmr-9" value="Generate Views" style="html=1;verticalAlign=bottom;endArrow=block;labelBackgroundColor=none;fontFamily=Verdana;fontSize=12;elbow=vertical;edgeStyle=orthogonalEdgeStyle;curved=1;exitX=0.9;exitY=0.041;exitPerimeter=0;exitDx=0;exitDy=0;entryX=0.9;entryY=0.45;entryDx=0;entryDy=0;entryPerimeter=0;" edge="1" parent="7baba1c4bc27f4b0-2" target="ZGyFGewA9WZNqlK4FPmr-8">
          <mxGeometry x="-0.1523" relative="1" as="geometry">
            <mxPoint x="56" y="240.0000000000001" as="sourcePoint" />
            <mxPoint x="82" y="297.21000000000004" as="targetPoint" />
            <Array as="points">
              <mxPoint x="137" y="240.11" />
              <mxPoint x="137" y="285.11" />
            </Array>
            <mxPoint as="offset" />
          </mxGeometry>
        </mxCell>
        <mxCell id="ZGyFGewA9WZNqlK4FPmr-22" value="" style="html=1;points=[];perimeter=orthogonalPerimeter;rounded=0;shadow=0;comic=0;labelBackgroundColor=none;strokeWidth=1;fontFamily=Verdana;fontSize=12;align=center;" vertex="1" parent="7baba1c4bc27f4b0-2">
          <mxGeometry x="45" y="360" width="10" height="100" as="geometry" />
        </mxCell>
        <mxCell id="ZGyFGewA9WZNqlK4FPmr-25" value="" style="html=1;points=[];perimeter=orthogonalPerimeter;rounded=0;shadow=0;comic=0;labelBackgroundColor=none;strokeWidth=1;fontFamily=Verdana;fontSize=12;align=center;" vertex="1" parent="7baba1c4bc27f4b0-2">
          <mxGeometry x="53" y="408.11" width="10" height="40" as="geometry" />
        </mxCell>
        <mxCell id="ZGyFGewA9WZNqlK4FPmr-26" value="Show &quot;Add&quot; windows" style="html=1;verticalAlign=bottom;endArrow=block;labelBackgroundColor=none;fontFamily=Verdana;fontSize=12;elbow=vertical;edgeStyle=orthogonalEdgeStyle;curved=1;exitX=0.9;exitY=0.041;exitPerimeter=0;exitDx=0;exitDy=0;entryX=0.9;entryY=0.45;entryDx=0;entryDy=0;entryPerimeter=0;" edge="1" parent="7baba1c4bc27f4b0-2" target="ZGyFGewA9WZNqlK4FPmr-25">
          <mxGeometry x="-0.1982" relative="1" as="geometry">
            <mxPoint x="56" y="380" as="sourcePoint" />
            <mxPoint x="-200" y="357.21000000000004" as="targetPoint" />
            <Array as="points">
              <mxPoint x="137" y="380.11" />
              <mxPoint x="137" y="425.11" />
            </Array>
            <mxPoint as="offset" />
          </mxGeometry>
        </mxCell>
        <mxCell id="ZGyFGewA9WZNqlK4FPmr-28" value="Request Connect/Disconnect" style="html=1;verticalAlign=bottom;endArrow=block;labelBackgroundColor=none;fontFamily=Verdana;fontSize=12;edgeStyle=elbowEdgeStyle;elbow=vertical;entryX=-0.086;entryY=0.002;entryDx=0;entryDy=0;entryPerimeter=0;" edge="1" parent="7baba1c4bc27f4b0-2" target="ZGyFGewA9WZNqlK4FPmr-27">
          <mxGeometry relative="1" as="geometry">
            <mxPoint x="-87.00000000000023" y="530.0699999999999" as="sourcePoint" />
            <mxPoint x="204" y="529" as="targetPoint" />
          </mxGeometry>
        </mxCell>
        <mxCell id="ZGyFGewA9WZNqlK4FPmr-39" value="" style="html=1;points=[];perimeter=orthogonalPerimeter;rounded=0;shadow=0;comic=0;labelBackgroundColor=none;strokeWidth=1;fontFamily=Verdana;fontSize=12;align=center;" vertex="1" parent="7baba1c4bc27f4b0-2">
          <mxGeometry x="45" y="720" width="10" height="680" as="geometry" />
        </mxCell>
        <mxCell id="ZGyFGewA9WZNqlK4FPmr-72" value="" style="html=1;points=[];perimeter=orthogonalPerimeter;rounded=0;shadow=0;comic=0;labelBackgroundColor=none;strokeWidth=1;fontFamily=Verdana;fontSize=12;align=center;" vertex="1" parent="7baba1c4bc27f4b0-2">
          <mxGeometry x="53" y="1198.1100000000001" width="10" height="40" as="geometry" />
        </mxCell>
        <mxCell id="ZGyFGewA9WZNqlK4FPmr-73" value="Update waveform&lt;br&gt;and table value" style="html=1;verticalAlign=bottom;endArrow=block;labelBackgroundColor=none;fontFamily=Verdana;fontSize=12;elbow=vertical;edgeStyle=orthogonalEdgeStyle;curved=1;exitX=0.9;exitY=0.041;exitPerimeter=0;exitDx=0;exitDy=0;entryX=0.9;entryY=0.45;entryDx=0;entryDy=0;entryPerimeter=0;" edge="1" parent="7baba1c4bc27f4b0-2" target="ZGyFGewA9WZNqlK4FPmr-72">
          <mxGeometry x="-0.0004" y="51" relative="1" as="geometry">
            <mxPoint x="56" y="1170" as="sourcePoint" />
            <mxPoint x="-532" y="1067.21" as="targetPoint" />
            <Array as="points">
              <mxPoint x="137" y="1170.1100000000001" />
              <mxPoint x="137" y="1215.1100000000001" />
            </Array>
            <mxPoint as="offset" />
          </mxGeometry>
        </mxCell>
        <mxCell id="ZGyFGewA9WZNqlK4FPmr-86" value="" style="html=1;points=[];perimeter=orthogonalPerimeter;rounded=0;shadow=0;comic=0;labelBackgroundColor=none;strokeWidth=1;fontFamily=Verdana;fontSize=12;align=center;" vertex="1" parent="7baba1c4bc27f4b0-2">
          <mxGeometry x="45" y="1554.9999999999998" width="10" height="100" as="geometry" />
        </mxCell>
        <mxCell id="7baba1c4bc27f4b0-3" value="Python Driver" style="shape=umlLifeline;perimeter=lifelinePerimeter;whiteSpace=wrap;html=1;container=1;collapsible=0;recursiveResize=0;outlineConnect=0;rounded=1;shadow=0;comic=0;labelBackgroundColor=none;strokeWidth=1;fontFamily=Verdana;fontSize=12;align=center;" parent="1" vertex="1">
          <mxGeometry x="548" y="80" width="102" height="1860" as="geometry" />
        </mxCell>
        <mxCell id="7baba1c4bc27f4b0-13" value="" style="html=1;points=[];perimeter=orthogonalPerimeter;rounded=0;shadow=0;comic=0;labelBackgroundColor=none;strokeWidth=1;fontFamily=Verdana;fontSize=12;align=center;" parent="7baba1c4bc27f4b0-3" vertex="1">
          <mxGeometry x="45" y="120" width="10" height="90" as="geometry" />
        </mxCell>
        <mxCell id="ZGyFGewA9WZNqlK4FPmr-40" value="" style="html=1;points=[];perimeter=orthogonalPerimeter;rounded=0;shadow=0;comic=0;labelBackgroundColor=none;strokeWidth=1;fontFamily=Verdana;fontSize=12;align=center;" vertex="1" parent="7baba1c4bc27f4b0-3">
          <mxGeometry x="45" y="730" width="10" height="60" as="geometry" />
        </mxCell>
        <mxCell id="ZGyFGewA9WZNqlK4FPmr-46" value="" style="html=1;points=[];perimeter=orthogonalPerimeter;rounded=0;shadow=0;comic=0;labelBackgroundColor=none;strokeWidth=1;fontFamily=Verdana;fontSize=12;align=center;" vertex="1" parent="7baba1c4bc27f4b0-3">
          <mxGeometry x="45" y="880" width="10" height="60" as="geometry" />
        </mxCell>
        <mxCell id="ZGyFGewA9WZNqlK4FPmr-47" value="" style="html=1;points=[];perimeter=orthogonalPerimeter;rounded=0;shadow=0;comic=0;labelBackgroundColor=none;strokeWidth=1;fontFamily=Verdana;fontSize=12;align=center;" vertex="1" parent="7baba1c4bc27f4b0-3">
          <mxGeometry x="267" y="890" width="10" height="40" as="geometry" />
        </mxCell>
        <mxCell id="ZGyFGewA9WZNqlK4FPmr-48" value="send add cmd" style="html=1;verticalAlign=bottom;endArrow=block;labelBackgroundColor=none;fontFamily=Verdana;fontSize=12;edgeStyle=elbowEdgeStyle;elbow=vertical;entryX=-0.01;entryY=0.083;entryDx=0;entryDy=0;entryPerimeter=0;" edge="1" parent="7baba1c4bc27f4b0-3" target="ZGyFGewA9WZNqlK4FPmr-47">
          <mxGeometry relative="1" as="geometry">
            <mxPoint x="55" y="893.5699999999997" as="sourcePoint" />
            <mxPoint x="-508" y="813.5" as="targetPoint" />
          </mxGeometry>
        </mxCell>
        <mxCell id="ZGyFGewA9WZNqlK4FPmr-49" value="Add result" style="html=1;verticalAlign=bottom;endArrow=open;dashed=1;endSize=8;labelBackgroundColor=none;fontFamily=Verdana;fontSize=12;edgeStyle=elbowEdgeStyle;elbow=vertical;exitX=-0.01;exitY=0.963;exitDx=0;exitDy=0;exitPerimeter=0;" edge="1" parent="7baba1c4bc27f4b0-3" source="ZGyFGewA9WZNqlK4FPmr-47">
          <mxGeometry relative="1" as="geometry">
            <mxPoint x="55" y="927.1599999999999" as="targetPoint" />
            <Array as="points">
              <mxPoint x="185" y="927.16" />
              <mxPoint x="215" y="927.16" />
            </Array>
            <mxPoint x="-530" y="847.16" as="sourcePoint" />
          </mxGeometry>
        </mxCell>
        <mxCell id="ZGyFGewA9WZNqlK4FPmr-50" value="Request Add Variable&lt;br&gt;to Read List" style="html=1;verticalAlign=bottom;endArrow=block;labelBackgroundColor=none;fontFamily=Verdana;fontSize=12;edgeStyle=elbowEdgeStyle;elbow=vertical;" edge="1" parent="7baba1c4bc27f4b0-3">
          <mxGeometry relative="1" as="geometry">
            <mxPoint x="-158.00000000000045" y="880.0699999999999" as="sourcePoint" />
            <mxPoint x="42" y="880" as="targetPoint" />
          </mxGeometry>
        </mxCell>
        <mxCell id="ZGyFGewA9WZNqlK4FPmr-51" value="" style="html=1;verticalAlign=bottom;endArrow=open;dashed=1;endSize=8;labelBackgroundColor=none;fontFamily=Verdana;fontSize=12;edgeStyle=elbowEdgeStyle;elbow=vertical;exitX=-0.01;exitY=0.963;exitDx=0;exitDy=0;exitPerimeter=0;" edge="1" parent="7baba1c4bc27f4b0-3">
          <mxGeometry relative="1" as="geometry">
            <mxPoint x="-158" y="940" as="targetPoint" />
            <Array as="points">
              <mxPoint x="-36.89999999999998" y="940" />
              <mxPoint x="-6.899999999999977" y="940" />
            </Array>
            <mxPoint x="45" y="941.3600000000001" as="sourcePoint" />
          </mxGeometry>
        </mxCell>
        <mxCell id="ZGyFGewA9WZNqlK4FPmr-85" value="Request Update value" style="html=1;verticalAlign=bottom;endArrow=block;labelBackgroundColor=none;fontFamily=Verdana;fontSize=12;edgeStyle=elbowEdgeStyle;elbow=vertical;entryX=-0.086;entryY=0.002;entryDx=0;entryDy=0;entryPerimeter=0;" edge="1" parent="7baba1c4bc27f4b0-3" target="ZGyFGewA9WZNqlK4FPmr-90">
          <mxGeometry relative="1" as="geometry">
            <mxPoint x="-158" y="1570" as="sourcePoint" />
            <mxPoint x="-344" y="1488.9999999999998" as="targetPoint" />
          </mxGeometry>
        </mxCell>
        <mxCell id="ZGyFGewA9WZNqlK4FPmr-87" value="Show Updated value" style="html=1;verticalAlign=bottom;endArrow=open;dashed=1;endSize=8;labelBackgroundColor=none;fontFamily=Verdana;fontSize=12;edgeStyle=elbowEdgeStyle;elbow=vertical;entryX=1.031;entryY=0.898;entryDx=0;entryDy=0;entryPerimeter=0;" edge="1" parent="7baba1c4bc27f4b0-3">
          <mxGeometry relative="1" as="geometry">
            <mxPoint x="-429" y="1652.01" as="targetPoint" />
            <Array as="points">
              <mxPoint x="-176.31" y="1652.2099999999998" />
              <mxPoint x="-146.31" y="1652.2099999999998" />
            </Array>
            <mxPoint x="-167.5" y="1652.21" as="sourcePoint" />
          </mxGeometry>
        </mxCell>
        <mxCell id="ZGyFGewA9WZNqlK4FPmr-88" value="Update value" style="html=1;verticalAlign=bottom;endArrow=block;labelBackgroundColor=none;fontFamily=Verdana;fontSize=12;elbow=vertical;rounded=0;" edge="1" parent="7baba1c4bc27f4b0-3">
          <mxGeometry x="0.0277" relative="1" as="geometry">
            <mxPoint x="-428.0000000000002" y="1554.9999999999998" as="sourcePoint" />
            <mxPoint x="-175" y="1555" as="targetPoint" />
            <mxPoint as="offset" />
          </mxGeometry>
        </mxCell>
        <mxCell id="ZGyFGewA9WZNqlK4FPmr-89" value="" style="html=1;points=[];perimeter=orthogonalPerimeter;rounded=0;shadow=0;comic=0;labelBackgroundColor=none;strokeWidth=1;fontFamily=Verdana;fontSize=12;align=center;" vertex="1" parent="7baba1c4bc27f4b0-3">
          <mxGeometry x="267" y="1587.4999999999998" width="10" height="40" as="geometry" />
        </mxCell>
        <mxCell id="ZGyFGewA9WZNqlK4FPmr-90" value="" style="html=1;points=[];perimeter=orthogonalPerimeter;rounded=0;shadow=0;comic=0;labelBackgroundColor=none;strokeWidth=1;fontFamily=Verdana;fontSize=12;align=center;" vertex="1" parent="7baba1c4bc27f4b0-3">
          <mxGeometry x="45" y="1569.9999999999998" width="10" height="70" as="geometry" />
        </mxCell>
        <mxCell id="ZGyFGewA9WZNqlK4FPmr-91" value="send update value cmd" style="html=1;verticalAlign=bottom;endArrow=block;labelBackgroundColor=none;fontFamily=Verdana;fontSize=12;edgeStyle=elbowEdgeStyle;elbow=vertical;entryX=-0.01;entryY=0.083;entryDx=0;entryDy=0;entryPerimeter=0;" edge="1" parent="7baba1c4bc27f4b0-3" target="ZGyFGewA9WZNqlK4FPmr-89">
          <mxGeometry relative="1" as="geometry">
            <mxPoint x="54.99999999999977" y="1591.07" as="sourcePoint" />
            <mxPoint x="262" y="1590.9999999999998" as="targetPoint" />
          </mxGeometry>
        </mxCell>
        <mxCell id="ZGyFGewA9WZNqlK4FPmr-92" value="Update result" style="html=1;verticalAlign=bottom;endArrow=open;dashed=1;endSize=8;labelBackgroundColor=none;fontFamily=Verdana;fontSize=12;edgeStyle=elbowEdgeStyle;elbow=vertical;exitX=-0.01;exitY=0.963;exitDx=0;exitDy=0;exitPerimeter=0;" edge="1" parent="7baba1c4bc27f4b0-3" source="ZGyFGewA9WZNqlK4FPmr-89" target="ZGyFGewA9WZNqlK4FPmr-90">
          <mxGeometry relative="1" as="geometry">
            <mxPoint x="110" y="1624.6599999999999" as="targetPoint" />
            <Array as="points">
              <mxPoint x="185" y="1624.6599999999999" />
              <mxPoint x="215" y="1624.6599999999999" />
            </Array>
            <mxPoint x="240" y="1624.6599999999999" as="sourcePoint" />
          </mxGeometry>
        </mxCell>
        <mxCell id="7baba1c4bc27f4b0-5" value="Monitor Program" style="shape=umlLifeline;perimeter=lifelinePerimeter;whiteSpace=wrap;html=1;container=1;collapsible=0;recursiveResize=0;outlineConnect=0;rounded=1;shadow=0;comic=0;labelBackgroundColor=none;strokeWidth=1;fontFamily=Verdana;fontSize=12;align=center;" parent="1" vertex="1">
          <mxGeometry x="770" y="80" width="100" height="1870" as="geometry" />
        </mxCell>
        <mxCell id="ZGyFGewA9WZNqlK4FPmr-42" value="" style="html=1;points=[];perimeter=orthogonalPerimeter;rounded=0;shadow=0;comic=0;labelBackgroundColor=none;strokeWidth=1;fontFamily=Verdana;fontSize=12;align=center;" vertex="1" parent="7baba1c4bc27f4b0-5">
          <mxGeometry x="45" y="740" width="10" height="40" as="geometry" />
        </mxCell>
        <mxCell id="ZGyFGewA9WZNqlK4FPmr-43" value="send clear cmd" style="html=1;verticalAlign=bottom;endArrow=block;labelBackgroundColor=none;fontFamily=Verdana;fontSize=12;edgeStyle=elbowEdgeStyle;elbow=vertical;entryX=-0.01;entryY=0.083;entryDx=0;entryDy=0;entryPerimeter=0;" edge="1" parent="7baba1c4bc27f4b0-5" target="ZGyFGewA9WZNqlK4FPmr-42">
          <mxGeometry relative="1" as="geometry">
            <mxPoint x="-167" y="743.5699999999999" as="sourcePoint" />
            <mxPoint x="40" y="743.5" as="targetPoint" />
          </mxGeometry>
        </mxCell>
        <mxCell id="ZGyFGewA9WZNqlK4FPmr-44" value="Clear result" style="html=1;verticalAlign=bottom;endArrow=open;dashed=1;endSize=8;labelBackgroundColor=none;fontFamily=Verdana;fontSize=12;edgeStyle=elbowEdgeStyle;elbow=vertical;exitX=-0.01;exitY=0.963;exitDx=0;exitDy=0;exitPerimeter=0;" edge="1" parent="7baba1c4bc27f4b0-5" source="ZGyFGewA9WZNqlK4FPmr-42">
          <mxGeometry relative="1" as="geometry">
            <mxPoint x="-167" y="777.1599999999999" as="targetPoint" />
            <Array as="points">
              <mxPoint x="-37" y="777.16" />
              <mxPoint x="-7" y="777.16" />
            </Array>
            <mxPoint x="18" y="777.16" as="sourcePoint" />
          </mxGeometry>
        </mxCell>
        <mxCell id="7baba1c4bc27f4b0-8" value="Host RICBOX&lt;br&gt;View" style="shape=umlLifeline;perimeter=lifelinePerimeter;whiteSpace=wrap;html=1;container=1;collapsible=0;recursiveResize=0;outlineConnect=0;rounded=1;shadow=0;comic=0;labelBackgroundColor=none;strokeWidth=1;fontFamily=Verdana;fontSize=12;align=center;" parent="1" vertex="1">
          <mxGeometry x="192" y="80" width="100" height="1860" as="geometry" />
        </mxCell>
        <mxCell id="7baba1c4bc27f4b0-9" value="" style="html=1;points=[];perimeter=orthogonalPerimeter;rounded=0;shadow=0;comic=0;labelBackgroundColor=none;strokeWidth=1;fontFamily=Verdana;fontSize=12;align=center;" parent="7baba1c4bc27f4b0-8" vertex="1">
          <mxGeometry x="45" y="100" width="10" height="220" as="geometry" />
        </mxCell>
        <mxCell id="ZGyFGewA9WZNqlK4FPmr-18" value="return" style="html=1;verticalAlign=bottom;endArrow=open;dashed=1;endSize=8;labelBackgroundColor=none;fontFamily=Verdana;fontSize=12;edgeStyle=elbowEdgeStyle;elbow=vertical;" edge="1" parent="7baba1c4bc27f4b0-8">
          <mxGeometry relative="1" as="geometry">
            <mxPoint x="55" y="320" as="targetPoint" />
            <Array as="points">
              <mxPoint x="130" y="320" />
              <mxPoint x="160" y="320" />
            </Array>
            <mxPoint x="185" y="320" as="sourcePoint" />
          </mxGeometry>
        </mxCell>
        <mxCell id="ZGyFGewA9WZNqlK4FPmr-30" value="Add Variable" style="html=1;verticalAlign=bottom;endArrow=block;labelBackgroundColor=none;fontFamily=Verdana;fontSize=12;edgeStyle=elbowEdgeStyle;elbow=vertical;" edge="1" parent="7baba1c4bc27f4b0-8">
          <mxGeometry x="-0.2936" relative="1" as="geometry">
            <mxPoint x="-72.00000000000023" y="360" as="sourcePoint" />
            <mxPoint x="183" y="360" as="targetPoint" />
            <mxPoint as="offset" />
          </mxGeometry>
        </mxCell>
        <mxCell id="ZGyFGewA9WZNqlK4FPmr-31" value="" style="html=1;points=[];perimeter=orthogonalPerimeter;rounded=0;shadow=0;comic=0;labelBackgroundColor=none;strokeWidth=1;fontFamily=Verdana;fontSize=12;align=center;" vertex="1" parent="7baba1c4bc27f4b0-8">
          <mxGeometry x="45" y="510" width="10" height="100" as="geometry" />
        </mxCell>
        <mxCell id="ZGyFGewA9WZNqlK4FPmr-37" value="Update&lt;br&gt;Connection status" style="html=1;verticalAlign=bottom;endArrow=open;dashed=1;endSize=8;labelBackgroundColor=none;fontFamily=Verdana;fontSize=12;edgeStyle=elbowEdgeStyle;elbow=vertical;entryX=1.031;entryY=0.898;entryDx=0;entryDy=0;entryPerimeter=0;" edge="1" parent="7baba1c4bc27f4b0-8">
          <mxGeometry relative="1" as="geometry">
            <mxPoint x="-72.00000000000006" y="610.01" as="targetPoint" />
            <Array as="points">
              <mxPoint x="180.69" y="610.21" />
              <mxPoint x="210.69" y="610.21" />
            </Array>
            <mxPoint x="48" y="610" as="sourcePoint" />
          </mxGeometry>
        </mxCell>
        <mxCell id="ZGyFGewA9WZNqlK4FPmr-38" value="Start Monitor" style="html=1;verticalAlign=bottom;endArrow=block;labelBackgroundColor=none;fontFamily=Verdana;fontSize=12;edgeStyle=elbowEdgeStyle;elbow=vertical;" edge="1" parent="7baba1c4bc27f4b0-8">
          <mxGeometry relative="1" as="geometry">
            <mxPoint x="-72" y="720" as="sourcePoint" />
            <mxPoint x="188" y="720" as="targetPoint" />
            <Array as="points">
              <mxPoint x="178" y="720" />
            </Array>
          </mxGeometry>
        </mxCell>
        <mxCell id="7baba1c4bc27f4b0-11" value="Initialize" style="html=1;verticalAlign=bottom;endArrow=block;entryX=0;entryY=0;labelBackgroundColor=none;fontFamily=Verdana;fontSize=12;edgeStyle=elbowEdgeStyle;elbow=vertical;" parent="1" source="7baba1c4bc27f4b0-9" target="7baba1c4bc27f4b0-10" edge="1">
          <mxGeometry relative="1" as="geometry">
            <mxPoint x="312" y="190" as="sourcePoint" />
          </mxGeometry>
        </mxCell>
        <mxCell id="7baba1c4bc27f4b0-14" value="Create Product" style="html=1;verticalAlign=bottom;endArrow=block;entryX=0;entryY=0;labelBackgroundColor=none;fontFamily=Verdana;fontSize=12;edgeStyle=elbowEdgeStyle;elbow=vertical;" parent="1" target="7baba1c4bc27f4b0-13" edge="1">
          <mxGeometry relative="1" as="geometry">
            <mxPoint x="387" y="200" as="sourcePoint" />
          </mxGeometry>
        </mxCell>
        <mxCell id="7baba1c4bc27f4b0-41" value="XEV Inverter Plugin" style="shape=note;whiteSpace=wrap;html=1;size=14;verticalAlign=top;align=left;spacingTop=-6;rounded=0;shadow=0;comic=0;labelBackgroundColor=none;strokeWidth=1;fontFamily=Verdana;fontSize=12" parent="1" vertex="1">
          <mxGeometry x="332" y="30" width="100" height="35" as="geometry" />
        </mxCell>
        <mxCell id="7baba1c4bc27f4b0-42" value="XEV Inverter Python driver" style="shape=note;whiteSpace=wrap;html=1;size=14;verticalAlign=top;align=left;spacingTop=-6;rounded=0;shadow=0;comic=0;labelBackgroundColor=none;strokeWidth=1;fontFamily=Verdana;fontSize=12" parent="1" vertex="1">
          <mxGeometry x="548" y="30" width="110" height="35" as="geometry" />
        </mxCell>
        <mxCell id="7baba1c4bc27f4b0-44" value="XEV Inverter MCU code" style="shape=note;whiteSpace=wrap;html=1;size=14;verticalAlign=top;align=left;spacingTop=-6;rounded=0;shadow=0;comic=0;labelBackgroundColor=none;strokeWidth=1;fontFamily=Verdana;fontSize=12" parent="1" vertex="1">
          <mxGeometry x="770" y="30" width="100" height="35" as="geometry" />
        </mxCell>
        <mxCell id="ZGyFGewA9WZNqlK4FPmr-11" value="Product Instance" style="html=1;verticalAlign=bottom;endArrow=open;dashed=1;endSize=8;labelBackgroundColor=none;fontFamily=Verdana;fontSize=12;elbow=vertical;rounded=0;exitX=-0.2;exitY=0.978;exitDx=0;exitDy=0;exitPerimeter=0;" edge="1" parent="1" source="7baba1c4bc27f4b0-13" target="7baba1c4bc27f4b0-10">
          <mxGeometry relative="1" as="geometry">
            <mxPoint x="452" y="288" as="targetPoint" />
            <mxPoint x="532" y="287.97" as="sourcePoint" />
          </mxGeometry>
        </mxCell>
        <mxCell id="ZGyFGewA9WZNqlK4FPmr-17" value="" style="group" vertex="1" connectable="0" parent="1">
          <mxGeometry x="90" y="32.5" width="60" height="1907.5" as="geometry" />
        </mxCell>
        <mxCell id="ZGyFGewA9WZNqlK4FPmr-12" value="" style="shape=umlActor;verticalLabelPosition=bottom;verticalAlign=middle;html=1;outlineConnect=0;align=center;" vertex="1" parent="ZGyFGewA9WZNqlK4FPmr-17">
          <mxGeometry x="10" y="17.5" width="40" height="67.89" as="geometry" />
        </mxCell>
        <mxCell id="ZGyFGewA9WZNqlK4FPmr-14" value="" style="endArrow=none;dashed=1;html=1;rounded=0;" edge="1" parent="ZGyFGewA9WZNqlK4FPmr-17">
          <mxGeometry width="50" height="50" relative="1" as="geometry">
            <mxPoint x="30" y="1907.5" as="sourcePoint" />
            <mxPoint x="30" y="87.5" as="targetPoint" />
          </mxGeometry>
        </mxCell>
        <mxCell id="ZGyFGewA9WZNqlK4FPmr-16" value="User" style="text;html=1;strokeColor=none;fillColor=none;align=center;verticalAlign=middle;whiteSpace=wrap;rounded=0;" vertex="1" parent="ZGyFGewA9WZNqlK4FPmr-17">
          <mxGeometry y="-12.5" width="60" height="36.16" as="geometry" />
        </mxCell>
        <mxCell id="ZGyFGewA9WZNqlK4FPmr-29" value="Connect/Discpnnect" style="html=1;verticalAlign=bottom;endArrow=block;labelBackgroundColor=none;fontFamily=Verdana;fontSize=12;edgeStyle=elbowEdgeStyle;elbow=vertical;" edge="1" parent="1">
          <mxGeometry relative="1" as="geometry">
            <mxPoint x="119.99999999999977" y="590" as="sourcePoint" />
            <mxPoint x="240" y="590" as="targetPoint" />
          </mxGeometry>
        </mxCell>
        <mxCell id="ZGyFGewA9WZNqlK4FPmr-32" value="" style="html=1;points=[];perimeter=orthogonalPerimeter;rounded=0;shadow=0;comic=0;labelBackgroundColor=none;strokeWidth=1;fontFamily=Verdana;fontSize=12;align=center;" vertex="1" parent="1">
          <mxGeometry x="815" y="627.5" width="10" height="40" as="geometry" />
        </mxCell>
        <mxCell id="ZGyFGewA9WZNqlK4FPmr-27" value="" style="html=1;points=[];perimeter=orthogonalPerimeter;rounded=0;shadow=0;comic=0;labelBackgroundColor=none;strokeWidth=1;fontFamily=Verdana;fontSize=12;align=center;" vertex="1" parent="1">
          <mxGeometry x="593" y="610" width="10" height="70" as="geometry" />
        </mxCell>
        <mxCell id="ZGyFGewA9WZNqlK4FPmr-34" value="send connect/disconnect cmd" style="html=1;verticalAlign=bottom;endArrow=block;labelBackgroundColor=none;fontFamily=Verdana;fontSize=12;edgeStyle=elbowEdgeStyle;elbow=vertical;entryX=-0.01;entryY=0.083;entryDx=0;entryDy=0;entryPerimeter=0;" edge="1" parent="1" target="ZGyFGewA9WZNqlK4FPmr-32">
          <mxGeometry relative="1" as="geometry">
            <mxPoint x="602.9999999999998" y="631.0699999999999" as="sourcePoint" />
            <mxPoint x="810" y="631" as="targetPoint" />
          </mxGeometry>
        </mxCell>
        <mxCell id="ZGyFGewA9WZNqlK4FPmr-35" value="Connection result" style="html=1;verticalAlign=bottom;endArrow=open;dashed=1;endSize=8;labelBackgroundColor=none;fontFamily=Verdana;fontSize=12;edgeStyle=elbowEdgeStyle;elbow=vertical;exitX=-0.01;exitY=0.963;exitDx=0;exitDy=0;exitPerimeter=0;" edge="1" parent="1" source="ZGyFGewA9WZNqlK4FPmr-32" target="ZGyFGewA9WZNqlK4FPmr-27">
          <mxGeometry relative="1" as="geometry">
            <mxPoint x="658" y="664.66" as="targetPoint" />
            <Array as="points">
              <mxPoint x="733" y="664.66" />
              <mxPoint x="763" y="664.66" />
            </Array>
            <mxPoint x="788" y="664.66" as="sourcePoint" />
          </mxGeometry>
        </mxCell>
        <mxCell id="ZGyFGewA9WZNqlK4FPmr-36" value="Connection result" style="html=1;verticalAlign=bottom;endArrow=open;dashed=1;endSize=8;labelBackgroundColor=none;fontFamily=Verdana;fontSize=12;edgeStyle=elbowEdgeStyle;elbow=vertical;exitX=-0.017;exitY=0.997;exitDx=0;exitDy=0;exitPerimeter=0;entryX=1.031;entryY=0.898;entryDx=0;entryDy=0;entryPerimeter=0;" edge="1" parent="1" source="ZGyFGewA9WZNqlK4FPmr-27" target="ZGyFGewA9WZNqlK4FPmr-31">
          <mxGeometry relative="1" as="geometry">
            <mxPoint x="370" y="679.9999999999999" as="targetPoint" />
            <Array as="points">
              <mxPoint x="500" y="680" />
              <mxPoint x="530" y="680" />
            </Array>
            <mxPoint x="581.9000000000001" y="681.36" as="sourcePoint" />
          </mxGeometry>
        </mxCell>
        <mxCell id="ZGyFGewA9WZNqlK4FPmr-41" value="Request Clear Read List" style="html=1;verticalAlign=bottom;endArrow=block;labelBackgroundColor=none;fontFamily=Verdana;fontSize=12;edgeStyle=elbowEdgeStyle;elbow=vertical;" edge="1" parent="1">
          <mxGeometry relative="1" as="geometry">
            <mxPoint x="389.99999999999955" y="810.0699999999999" as="sourcePoint" />
            <mxPoint x="590" y="810" as="targetPoint" />
          </mxGeometry>
        </mxCell>
        <mxCell id="ZGyFGewA9WZNqlK4FPmr-45" value="" style="html=1;verticalAlign=bottom;endArrow=open;dashed=1;endSize=8;labelBackgroundColor=none;fontFamily=Verdana;fontSize=12;edgeStyle=elbowEdgeStyle;elbow=vertical;exitX=-0.01;exitY=0.963;exitDx=0;exitDy=0;exitPerimeter=0;" edge="1" parent="1">
          <mxGeometry relative="1" as="geometry">
            <mxPoint x="390" y="870" as="targetPoint" />
            <Array as="points">
              <mxPoint x="511.1" y="870" />
              <mxPoint x="541.1" y="870" />
            </Array>
            <mxPoint x="593.0000000000001" y="871.36" as="sourcePoint" />
          </mxGeometry>
        </mxCell>
        <mxCell id="ZGyFGewA9WZNqlK4FPmr-52" value="" style="html=1;points=[];perimeter=orthogonalPerimeter;rounded=0;shadow=0;comic=0;labelBackgroundColor=none;strokeWidth=1;fontFamily=Verdana;fontSize=12;align=center;" vertex="1" parent="1">
          <mxGeometry x="593" y="1080" width="10" height="60" as="geometry" />
        </mxCell>
        <mxCell id="ZGyFGewA9WZNqlK4FPmr-53" value="" style="html=1;points=[];perimeter=orthogonalPerimeter;rounded=0;shadow=0;comic=0;labelBackgroundColor=none;strokeWidth=1;fontFamily=Verdana;fontSize=12;align=center;" vertex="1" parent="1">
          <mxGeometry x="815" y="1090" width="10" height="40" as="geometry" />
        </mxCell>
        <mxCell id="ZGyFGewA9WZNqlK4FPmr-54" value="send read continuous cmd" style="html=1;verticalAlign=bottom;endArrow=block;labelBackgroundColor=none;fontFamily=Verdana;fontSize=12;edgeStyle=elbowEdgeStyle;elbow=vertical;entryX=-0.01;entryY=0.083;entryDx=0;entryDy=0;entryPerimeter=0;" edge="1" parent="1" target="ZGyFGewA9WZNqlK4FPmr-53">
          <mxGeometry relative="1" as="geometry">
            <mxPoint x="603" y="1093.5699999999997" as="sourcePoint" />
            <mxPoint x="-508" y="933.5" as="targetPoint" />
          </mxGeometry>
        </mxCell>
        <mxCell id="ZGyFGewA9WZNqlK4FPmr-56" value="Request Read continuous" style="html=1;verticalAlign=bottom;endArrow=block;labelBackgroundColor=none;fontFamily=Verdana;fontSize=12;edgeStyle=elbowEdgeStyle;elbow=vertical;" edge="1" parent="1">
          <mxGeometry relative="1" as="geometry">
            <mxPoint x="389.99999999999955" y="1080.07" as="sourcePoint" />
            <mxPoint x="590" y="1080" as="targetPoint" />
          </mxGeometry>
        </mxCell>
        <mxCell id="ZGyFGewA9WZNqlK4FPmr-59" value="" style="html=1;verticalAlign=bottom;endArrow=open;dashed=1;endSize=8;labelBackgroundColor=none;fontFamily=Verdana;fontSize=12;edgeStyle=elbowEdgeStyle;elbow=vertical;exitX=-0.01;exitY=0.963;exitDx=0;exitDy=0;exitPerimeter=0;" edge="1" parent="1">
          <mxGeometry relative="1" as="geometry">
            <mxPoint x="390" y="1140" as="targetPoint" />
            <Array as="points">
              <mxPoint x="511.1" y="1140" />
              <mxPoint x="541.1" y="1140" />
            </Array>
            <mxPoint x="593" y="1141.3600000000001" as="sourcePoint" />
          </mxGeometry>
        </mxCell>
        <mxCell id="ZGyFGewA9WZNqlK4FPmr-62" value="Read continuous result" style="html=1;verticalAlign=bottom;endArrow=open;dashed=1;endSize=8;labelBackgroundColor=none;fontFamily=Verdana;fontSize=12;edgeStyle=elbowEdgeStyle;elbow=vertical;exitX=-0.01;exitY=0.963;exitDx=0;exitDy=0;exitPerimeter=0;" edge="1" parent="1">
          <mxGeometry relative="1" as="geometry">
            <mxPoint x="603.1" y="1129.9999999999998" as="targetPoint" />
            <Array as="points">
              <mxPoint x="733.1" y="1130" />
              <mxPoint x="763.1" y="1130" />
            </Array>
            <mxPoint x="815.0000000000001" y="1131.3600000000001" as="sourcePoint" />
          </mxGeometry>
        </mxCell>
        <mxCell id="ZGyFGewA9WZNqlK4FPmr-66" value="" style="html=1;points=[];perimeter=orthogonalPerimeter;rounded=0;shadow=0;comic=0;labelBackgroundColor=none;strokeWidth=1;fontFamily=Verdana;fontSize=12;align=center;" vertex="1" parent="1">
          <mxGeometry x="593" y="1193" width="10" height="27" as="geometry" />
        </mxCell>
        <mxCell id="ZGyFGewA9WZNqlK4FPmr-65" value="" style="endArrow=block;html=1;rounded=0;strokeWidth=1;jumpSize=6;endFill=0;" edge="1" parent="1">
          <mxGeometry width="50" height="50" relative="1" as="geometry">
            <mxPoint x="819.5" y="1194" as="sourcePoint" />
            <mxPoint x="602" y="1194" as="targetPoint" />
          </mxGeometry>
        </mxCell>
        <mxCell id="ZGyFGewA9WZNqlK4FPmr-67" value="&lt;font style=&quot;font-size: 12px&quot;&gt;Captured frame&lt;/font&gt;" style="edgeLabel;html=1;align=center;verticalAlign=middle;resizable=0;points=[];" vertex="1" connectable="0" parent="ZGyFGewA9WZNqlK4FPmr-65">
          <mxGeometry x="-0.1111" y="-1" relative="1" as="geometry">
            <mxPoint x="-13" y="-10" as="offset" />
          </mxGeometry>
        </mxCell>
        <mxCell id="ZGyFGewA9WZNqlK4FPmr-70" value="" style="html=1;verticalAlign=bottom;endArrow=block;endSize=8;labelBackgroundColor=none;fontFamily=Verdana;fontSize=12;edgeStyle=elbowEdgeStyle;elbow=vertical;exitX=-0.01;exitY=0.963;exitDx=0;exitDy=0;exitPerimeter=0;endFill=0;rounded=0;" edge="1" parent="1">
          <mxGeometry relative="1" as="geometry">
            <mxPoint x="390" y="1210" as="targetPoint" />
            <Array as="points">
              <mxPoint x="511.1" y="1210" />
              <mxPoint x="541.1" y="1210" />
            </Array>
            <mxPoint x="593" y="1211.3600000000001" as="sourcePoint" />
          </mxGeometry>
        </mxCell>
        <mxCell id="ZGyFGewA9WZNqlK4FPmr-71" value="Data received event" style="edgeLabel;html=1;align=center;verticalAlign=middle;resizable=0;points=[];fontSize=12;" vertex="1" connectable="0" parent="ZGyFGewA9WZNqlK4FPmr-70">
          <mxGeometry x="-0.3815" y="-1" relative="1" as="geometry">
            <mxPoint x="-41" y="-9" as="offset" />
          </mxGeometry>
        </mxCell>
        <mxCell id="ZGyFGewA9WZNqlK4FPmr-74" value="Stop Monitor" style="html=1;verticalAlign=bottom;endArrow=block;labelBackgroundColor=none;fontFamily=Verdana;fontSize=12;edgeStyle=elbowEdgeStyle;elbow=vertical;" edge="1" parent="1">
          <mxGeometry relative="1" as="geometry">
            <mxPoint x="120" y="1379.9999999999998" as="sourcePoint" />
            <mxPoint x="380.0000000000002" y="1379.9999999999998" as="targetPoint" />
            <Array as="points">
              <mxPoint x="370" y="1380" />
            </Array>
          </mxGeometry>
        </mxCell>
        <mxCell id="ZGyFGewA9WZNqlK4FPmr-77" value="" style="html=1;points=[];perimeter=orthogonalPerimeter;rounded=0;shadow=0;comic=0;labelBackgroundColor=none;strokeWidth=1;fontFamily=Verdana;fontSize=12;align=center;" vertex="1" parent="1">
          <mxGeometry x="593" y="1390.21" width="10" height="60" as="geometry" />
        </mxCell>
        <mxCell id="ZGyFGewA9WZNqlK4FPmr-78" value="" style="html=1;points=[];perimeter=orthogonalPerimeter;rounded=0;shadow=0;comic=0;labelBackgroundColor=none;strokeWidth=1;fontFamily=Verdana;fontSize=12;align=center;" vertex="1" parent="1">
          <mxGeometry x="815" y="1400.21" width="10" height="40" as="geometry" />
        </mxCell>
        <mxCell id="ZGyFGewA9WZNqlK4FPmr-79" value="send clear cmd" style="html=1;verticalAlign=bottom;endArrow=block;labelBackgroundColor=none;fontFamily=Verdana;fontSize=12;edgeStyle=elbowEdgeStyle;elbow=vertical;entryX=-0.01;entryY=0.083;entryDx=0;entryDy=0;entryPerimeter=0;" edge="1" parent="1" target="ZGyFGewA9WZNqlK4FPmr-78">
          <mxGeometry relative="1" as="geometry">
            <mxPoint x="603" y="1403.78" as="sourcePoint" />
            <mxPoint x="40" y="1323.71" as="targetPoint" />
          </mxGeometry>
        </mxCell>
        <mxCell id="ZGyFGewA9WZNqlK4FPmr-80" value="Clear result" style="html=1;verticalAlign=bottom;endArrow=open;dashed=1;endSize=8;labelBackgroundColor=none;fontFamily=Verdana;fontSize=12;edgeStyle=elbowEdgeStyle;elbow=vertical;exitX=-0.01;exitY=0.963;exitDx=0;exitDy=0;exitPerimeter=0;" edge="1" parent="1" source="ZGyFGewA9WZNqlK4FPmr-78">
          <mxGeometry relative="1" as="geometry">
            <mxPoint x="603" y="1437.37" as="targetPoint" />
            <Array as="points">
              <mxPoint x="733" y="1437.37" />
              <mxPoint x="763" y="1437.37" />
            </Array>
            <mxPoint x="18" y="1357.37" as="sourcePoint" />
          </mxGeometry>
        </mxCell>
        <mxCell id="ZGyFGewA9WZNqlK4FPmr-81" value="Request Clear Read List" style="html=1;verticalAlign=bottom;endArrow=block;labelBackgroundColor=none;fontFamily=Verdana;fontSize=12;edgeStyle=elbowEdgeStyle;elbow=vertical;" edge="1" parent="1">
          <mxGeometry relative="1" as="geometry">
            <mxPoint x="389.99999999999955" y="1390.28" as="sourcePoint" />
            <mxPoint x="590.0000000000002" y="1390.2099999999998" as="targetPoint" />
          </mxGeometry>
        </mxCell>
        <mxCell id="ZGyFGewA9WZNqlK4FPmr-82" value="" style="html=1;verticalAlign=bottom;endArrow=open;dashed=1;endSize=8;labelBackgroundColor=none;fontFamily=Verdana;fontSize=12;edgeStyle=elbowEdgeStyle;elbow=vertical;exitX=-0.01;exitY=0.963;exitDx=0;exitDy=0;exitPerimeter=0;" edge="1" parent="1">
          <mxGeometry relative="1" as="geometry">
            <mxPoint x="390.0000000000002" y="1450.2099999999998" as="targetPoint" />
            <Array as="points">
              <mxPoint x="511.1" y="1450.21" />
              <mxPoint x="541.1" y="1450.21" />
            </Array>
            <mxPoint x="593" y="1451.57" as="sourcePoint" />
          </mxGeometry>
        </mxCell>
        <mxCell id="ZGyFGewA9WZNqlK4FPmr-83" value="Show realtime waveform&lt;br&gt;and variable value" style="html=1;verticalAlign=bottom;endArrow=open;dashed=1;endSize=8;labelBackgroundColor=none;fontFamily=Verdana;fontSize=12;edgeStyle=elbowEdgeStyle;elbow=vertical;" edge="1" parent="1">
          <mxGeometry relative="1" as="geometry">
            <mxPoint x="125" y="1320" as="targetPoint" />
            <Array as="points">
              <mxPoint x="406.69" y="1320.21" />
              <mxPoint x="436.69" y="1320.21" />
            </Array>
            <mxPoint x="375.5" y="1320.21" as="sourcePoint" />
          </mxGeometry>
        </mxCell>
        <mxCell id="ZGyFGewA9WZNqlK4FPmr-84" value="Stop waveform" style="html=1;verticalAlign=bottom;endArrow=open;dashed=1;endSize=8;labelBackgroundColor=none;fontFamily=Verdana;fontSize=12;edgeStyle=elbowEdgeStyle;elbow=vertical;" edge="1" parent="1">
          <mxGeometry relative="1" as="geometry">
            <mxPoint x="121.75" y="1480" as="targetPoint" />
            <Array as="points">
              <mxPoint x="403.44" y="1480.21" />
              <mxPoint x="433.44" y="1480.21" />
            </Array>
            <mxPoint x="372.25" y="1480.21" as="sourcePoint" />
          </mxGeometry>
        </mxCell>
        <mxCell id="ZGyFGewA9WZNqlK4FPmr-93" value="Update result" style="html=1;verticalAlign=bottom;endArrow=open;dashed=1;endSize=8;labelBackgroundColor=none;fontFamily=Verdana;fontSize=12;elbow=vertical;exitX=-0.017;exitY=0.997;exitDx=0;exitDy=0;exitPerimeter=0;rounded=0;" edge="1" parent="1" source="ZGyFGewA9WZNqlK4FPmr-90">
          <mxGeometry relative="1" as="geometry">
            <mxPoint x="389" y="1719" as="targetPoint" />
            <mxPoint x="581.9000000000001" y="1721.36" as="sourcePoint" />
          </mxGeometry>
        </mxCell>
      </root>
    </mxGraphModel>
  </diagram>
</mxfile>
